<?xml version="1.0" encoding="UTF-8"?>
<svg width="16px" height="16px" viewBox="0 0 16 16" version="1.1" xmlns="http://www.w3.org/2000/svg" xmlns:xlink="http://www.w3.org/1999/xlink">
    <title>ic-top</title>
    <g id="页面-1调整后" stroke="none" stroke-width="1" fill="none" fill-rule="evenodd">
        <g id="MarketPlace-Fixed-Price" transform="translate(-131.000000, -5438.000000)" fill="#C6CCDA" fill-rule="nonzero">
            <g id="编组-10" transform="translate(131.000000, 5434.000000)">
                <path d="M8,20 C9.09739369,20 10.1289438,19.7901235 11.0946502,19.3703704 C12.0603567,18.9506173 12.9108368,18.3731139 13.6460905,17.6378601 C14.3813443,16.9026063 14.957476,16.0534979 15.3744856,15.090535 C15.7914952,14.127572 16,13.0973937 16,12 C16,10.9026063 15.7914952,9.87242798 15.3744856,8.90946502 C14.957476,7.94650206 14.3799726,7.09602195 13.6419753,6.35802469 C12.9039781,5.62002743 12.0521262,5.04252401 11.0864198,4.6255144 C10.1207133,4.2085048 9.08916324,4 7.99176955,4 C6.90534979,4 5.87928669,4.2085048 4.91358025,4.6255144 C3.9478738,5.04252401 3.09602195,5.62002743 2.35802469,6.35802469 C1.62002743,7.09602195 1.04252401,7.94650206 0.625514403,8.90946502 C0.208504801,9.87242798 0,10.9026063 0,12 C0,13.0973937 0.209876543,14.127572 0.62962963,15.090535 C1.04938272,16.0534979 1.62688615,16.9026063 2.36213992,17.6378601 C3.09739369,18.3731139 3.9478738,18.9506173 4.91358025,19.3703704 C5.87928669,19.7901235 6.90809328,20 8,20 Z M7.99150485,16 C7.79328479,16 7.62762945,15.939577 7.49453883,15.8187311 C7.36144822,15.6978852 7.29490291,15.543471 7.29490291,15.3554884 L7.29490291,11.5528701 L7.37135922,9.90130916 L6.58980583,10.8197382 L5.62985437,11.7462236 C5.5052589,11.8751259 5.34668285,11.939577 5.15412621,11.939577 C4.96723301,11.939577 4.81148867,11.8818395 4.6868932,11.7663646 C4.56229773,11.6508896 4.5,11.5045317 4.5,11.327291 C4.5,11.1446794 4.56229773,10.9942934 4.6868932,10.8761329 L7.44781553,8.24974824 C7.61771845,8.08324941 7.79894822,8 7.99150485,8 C8.18972492,8 8.37378641,8.08324941 8.54368932,8.24974824 L11.2961165,10.8761329 C11.4320388,10.9996643 11.5,11.1500504 11.5,11.327291 C11.5,11.5045317 11.4362864,11.6508896 11.3088592,11.7663646 C11.181432,11.8818395 11.0214401,11.939577 10.8288835,11.939577 C10.6363269,11.939577 10.4777508,11.8751259 10.3531553,11.7462236 L9.41019417,10.8277946 L8.61165049,9.89325277 L8.6881068,11.5528701 L8.6881068,15.3554884 C8.6881068,15.543471 8.62297735,15.6978852 8.49271845,15.8187311 C8.36245955,15.939577 8.19538835,16 7.99150485,16 Z" id="ic-top"></path>
            </g>
        </g>
    </g>
</svg>