<svg width="535" height="88" viewBox="0 0 535 88" fill="none" xmlns="http://www.w3.org/2000/svg">
<path d="M39.9144 62.8571C57.2001 62.8571 71.343 48.7143 71.343 31.4286C71.343 24.2 69.143 17.9143 65.0573 12.5714C68.8287 9.74286 71.343 5.02857 71.343 0H39.9144C22.6287 0 8.48584 14.1429 8.48584 31.4286C8.48584 48.7143 22.6287 62.8571 39.9144 62.8571ZM39.9144 14.4571C49.343 14.4571 56.8858 22 56.8858 31.4286C56.8858 40.8571 49.343 48.4 39.9144 48.4C30.4858 48.4 22.943 40.8571 22.943 31.4286C22.943 22 30.4858 14.4571 39.9144 14.4571Z" fill="#00DF9B"/>
<path d="M80.143 71.343C78.2573 66.6287 74.4859 63.1715 69.4573 61.6001C61.2859 69.4572 50.6002 73.543 40.2287 73.543C29.543 73.543 19.1716 69.4572 11.0002 61.6001C5.9716 63.1715 2.20017 66.6287 0.314453 71.343C11.0002 82.343 25.4573 88.0001 39.9145 88.0001C54.3716 88.0001 68.8287 82.343 80.143 71.343Z" fill="#2471FE"/>
<path d="M177.885 10.3716C173.8 10.3716 170.971 13.2002 170.971 17.2859C170.971 21.3716 173.8 24.2002 177.885 24.2002C181.971 24.2002 184.8 21.3716 184.8 17.2859C184.8 13.2002 181.971 10.3716 177.885 10.3716Z" fill="#121314"/>
<path d="M104.971 74.4858C108.79 74.4858 111.886 71.3902 111.886 67.5715C111.886 63.7529 108.79 60.6572 104.971 60.6572C101.153 60.6572 98.0571 63.7529 98.0571 67.5715C98.0571 71.3902 101.153 74.4858 104.971 74.4858Z" fill="#121314"/>
<path d="M144.571 28.6001C140.8 28.6001 137.343 29.8572 134.2 32.0572C134.2 23.2572 134.2 13.5144 134.2 13.5144C130.429 11.6287 126.029 11.6287 121.943 13.5144V73.8572C125.714 75.743 130.429 75.743 134.2 73.8572V71.343C137.029 73.543 140.8 74.8001 144.571 74.8001C150.857 74.8001 156.514 71.6572 159.657 66.0001C161.857 62.2287 162.8 57.5144 162.8 51.8572C162.8 46.2001 161.543 41.4858 159.657 37.7144C156.514 32.0572 151.171 28.6001 144.571 28.6001ZM142.371 64.1144C136.714 64.1144 134.2 58.4572 134.2 51.543C134.2 44.6287 136.714 38.9715 142.371 38.9715C148.029 38.9715 150.543 45.2572 150.543 51.543C150.543 57.8287 148.029 64.1144 142.371 64.1144Z" fill="#121314"/>
<path d="M171.6 29.8572V73.5429C175.372 75.4286 180.086 75.4286 183.857 73.5429V29.8572C180.086 27.9714 175.686 27.9714 171.6 29.8572Z" fill="#121314"/>
<path d="M218.743 63.8002H214.028C212.143 63.8002 210.571 62.2287 210.571 60.343V39.2859C214.028 39.2859 218.428 39.2859 218.428 39.2859C220 36.143 220 32.6859 218.428 29.543H210.571V18.2287C206.8 16.343 202.4 16.343 198.314 18.2287V29.2287H191.4C189.828 32.3716 189.828 35.8287 191.4 38.9716C191.4 38.9716 195.8 38.9716 198.314 38.9716V64.1145C198.314 71.343 203.028 74.1716 212.143 74.1716C216.228 74.1716 218.743 73.8573 218.743 73.8573C220.314 71.0287 220.314 66.943 218.743 63.8002Z" fill="#121314"/>
<rect x="244" y="10" width="2" height="66" fill="#C4C4C4"/>
<path d="M302.4 44.8C302.133 44.96 302.133 45.12 302.4 45.28C308.053 47.68 310.88 52.1333 310.88 58.64C310.88 63.5467 309.253 67.3333 306 70C302.747 72.6667 298.507 74 293.28 74H273.36C272.827 74 272.56 73.7333 272.56 73.2V18.8C272.56 18.2667 272.827 18 273.36 18H292.64C298.187 18 302.48 19.28 305.52 21.84C308.613 24.3467 310.16 28.0267 310.16 32.88C310.16 38.64 307.573 42.6133 302.4 44.8ZM280.56 24.64C280.347 24.64 280.24 24.7467 280.24 24.96V41.84C280.24 42.0533 280.347 42.16 280.56 42.16H292.64C295.733 42.16 298.16 41.3867 299.92 39.84C301.733 38.2933 302.64 36.1867 302.64 33.52C302.64 30.8 301.733 28.64 299.92 27.04C298.16 25.44 295.733 24.64 292.64 24.64H280.56ZM293.28 67.28C296.32 67.28 298.72 66.4533 300.48 64.8C302.293 63.0933 303.2 60.8 303.2 57.92C303.2 55.04 302.293 52.7733 300.48 51.12C298.667 49.4133 296.187 48.56 293.04 48.56H280.56C280.347 48.56 280.24 48.6667 280.24 48.88V66.96C280.24 67.1733 280.347 67.28 280.56 67.28H293.28Z" fill="black"/>
<path d="M335.011 32.64C338.265 32.64 341.091 33.2267 343.491 34.4C345.945 35.52 347.811 37.12 349.091 39.2C350.425 41.2267 351.091 43.5467 351.091 46.16V73.2C351.091 73.7333 350.825 74 350.291 74H344.211C343.678 74 343.411 73.7333 343.411 73.2V70.32C343.411 70.0533 343.278 70 343.011 70.16C341.625 71.6 339.918 72.72 337.891 73.52C335.918 74.2667 333.705 74.64 331.251 74.64C327.305 74.64 324.025 73.6533 321.411 71.68C318.851 69.6533 317.571 66.6133 317.571 62.56C317.571 58.4 319.011 55.1467 321.891 52.8C324.825 50.4 328.905 49.2 334.131 49.2H343.091C343.305 49.2 343.411 49.0933 343.411 48.88V46.72C343.411 44.3733 342.718 42.56 341.331 41.28C339.998 39.9467 337.945 39.28 335.171 39.28C332.931 39.28 331.091 39.7333 329.651 40.64C328.265 41.4933 327.411 42.6667 327.091 44.16C326.931 44.6933 326.611 44.9333 326.131 44.88L319.651 44C319.118 43.8933 318.878 43.68 318.931 43.36C319.358 40.2133 321.038 37.6533 323.971 35.68C326.905 33.6533 330.585 32.64 335.011 32.64ZM332.931 68.16C335.758 68.16 338.211 67.4133 340.291 65.92C342.371 64.4267 343.411 62.5333 343.411 60.24V55.52C343.411 55.3067 343.305 55.2 343.091 55.2H335.571C332.425 55.2 329.918 55.8133 328.051 57.04C326.185 58.2667 325.251 59.9733 325.251 62.16C325.251 64.1333 325.945 65.6267 327.331 66.64C328.771 67.6533 330.638 68.16 332.931 68.16Z" fill="black"/>
<path d="M361.259 74C360.726 74 360.459 73.7333 360.459 73.2V18.8C360.459 18.2667 360.726 18 361.259 18H367.339C367.873 18 368.139 18.2667 368.139 18.8V73.2C368.139 73.7333 367.873 74 367.339 74H361.259Z" fill="black"/>
<path d="M393.168 32.64C396.421 32.64 399.248 33.2267 401.648 34.4C404.101 35.52 405.968 37.12 407.248 39.2C408.581 41.2267 409.248 43.5467 409.248 46.16V73.2C409.248 73.7333 408.981 74 408.448 74H402.368C401.834 74 401.568 73.7333 401.568 73.2V70.32C401.568 70.0533 401.434 70 401.168 70.16C399.781 71.6 398.074 72.72 396.048 73.52C394.074 74.2667 391.861 74.64 389.408 74.64C385.461 74.64 382.181 73.6533 379.568 71.68C377.008 69.6533 375.728 66.6133 375.728 62.56C375.728 58.4 377.168 55.1467 380.048 52.8C382.981 50.4 387.061 49.2 392.288 49.2H401.248C401.461 49.2 401.568 49.0933 401.568 48.88V46.72C401.568 44.3733 400.874 42.56 399.488 41.28C398.154 39.9467 396.101 39.28 393.328 39.28C391.088 39.28 389.248 39.7333 387.808 40.64C386.421 41.4933 385.568 42.6667 385.248 44.16C385.088 44.6933 384.768 44.9333 384.288 44.88L377.808 44C377.274 43.8933 377.034 43.68 377.088 43.36C377.514 40.2133 379.194 37.6533 382.128 35.68C385.061 33.6533 388.741 32.64 393.168 32.64ZM391.088 68.16C393.914 68.16 396.368 67.4133 398.448 65.92C400.528 64.4267 401.568 62.5333 401.568 60.24V55.52C401.568 55.3067 401.461 55.2 401.248 55.2H393.728C390.581 55.2 388.074 55.8133 386.208 57.04C384.341 58.2667 383.408 59.9733 383.408 62.16C383.408 64.1333 384.101 65.6267 385.488 66.64C386.928 67.6533 388.794 68.16 391.088 68.16Z" fill="black"/>
<path d="M436.776 32.72C441.149 32.72 444.616 34 447.176 36.56C449.736 39.0667 451.016 42.48 451.016 46.8V73.2C451.016 73.7333 450.749 74 450.216 74H444.136C443.602 74 443.336 73.7333 443.336 73.2V48.32C443.336 45.6533 442.562 43.4933 441.016 41.84C439.469 40.1867 437.416 39.36 434.856 39.36C432.349 39.36 430.296 40.1867 428.696 41.84C427.096 43.4933 426.296 45.6267 426.296 48.24V73.2C426.296 73.7333 426.029 74 425.496 74H419.416C418.882 74 418.616 73.7333 418.616 73.2V34.08C418.616 33.5467 418.882 33.28 419.416 33.28H425.496C426.029 33.28 426.296 33.5467 426.296 34.08V36.96C426.296 37.0667 426.322 37.1467 426.376 37.2C426.482 37.2533 426.562 37.2267 426.616 37.12C428.909 34.1867 432.296 32.72 436.776 32.72Z" fill="black"/>
<path d="M476.826 74.64C472.773 74.64 469.306 73.6267 466.426 71.6C463.546 69.52 461.573 66.72 460.506 63.2C459.706 60.7467 459.306 57.52 459.306 53.52C459.306 49.84 459.706 46.6133 460.506 43.84C461.573 40.4267 463.546 37.7067 466.426 35.68C469.36 33.6533 472.826 32.64 476.826 32.64C480.826 32.64 484.32 33.6533 487.306 35.68C490.293 37.7067 492.24 40.2667 493.146 43.36C493.466 44.2133 493.68 45.0933 493.786 46C493.786 46.4267 493.546 46.6933 493.066 46.8L487.066 47.68H486.906C486.533 47.68 486.266 47.44 486.106 46.96L485.866 45.68C485.44 43.8667 484.4 42.3467 482.746 41.12C481.093 39.8933 479.093 39.28 476.746 39.28C474.453 39.28 472.506 39.8933 470.906 41.12C469.306 42.3467 468.266 43.9733 467.786 46C467.306 47.92 467.066 50.4533 467.066 53.6C467.066 56.6933 467.306 59.2 467.786 61.12C468.32 63.2533 469.36 64.9333 470.906 66.16C472.506 67.3867 474.453 68 476.746 68C479.093 68 481.093 67.3867 482.746 66.16C484.453 64.9333 485.52 63.3333 485.946 61.36C486 61.3067 486 61.2533 485.946 61.2C485.946 61.0933 485.973 61.0133 486.026 60.96V60.64C486.186 60.2133 486.48 60.0533 486.906 60.16L492.906 61.12C493.333 61.2267 493.546 61.44 493.546 61.76V62.08C493.546 62.56 493.413 63.1467 493.146 63.84C492.24 67.0933 490.293 69.7067 487.306 71.68C484.32 73.6533 480.826 74.64 476.826 74.64Z" fill="black"/>
<path d="M534.263 48.56C534.477 50.7467 534.557 53.2 534.503 55.92C534.503 56.4533 534.237 56.72 533.703 56.72H508.183C507.97 56.72 507.863 56.8267 507.863 57.04C507.863 58.8533 508.023 60.24 508.343 61.2C508.93 63.3333 510.103 65.0133 511.863 66.24C513.677 67.4133 515.943 68 518.663 68C522.61 68 525.65 66.3733 527.783 63.12C528.05 62.5867 528.397 62.5067 528.823 62.88L533.383 65.92C533.757 66.24 533.837 66.5867 533.623 66.96C532.13 69.36 529.997 71.2533 527.223 72.64C524.503 74.0267 521.41 74.72 517.943 74.72C514.05 74.72 510.77 73.8667 508.103 72.16C505.437 70.4533 503.437 68.0267 502.103 64.88C500.823 61.7333 500.183 57.92 500.183 53.44C500.183 49.5467 500.477 46.5867 501.063 44.56C502.023 40.88 503.943 37.9733 506.823 35.84C509.703 33.7067 513.197 32.64 517.303 32.64C522.69 32.64 526.717 34 529.383 36.72C532.05 39.3867 533.677 43.3333 534.263 48.56ZM517.303 39.28C515.01 39.28 513.117 39.8667 511.623 41.04C510.13 42.16 509.117 43.68 508.583 45.6C508.21 46.7733 507.97 48.2667 507.863 50.08C507.863 50.2933 507.97 50.4 508.183 50.4H526.503C526.717 50.4 526.823 50.2933 526.823 50.08C526.717 48.32 526.557 47.0133 526.343 46.16C525.81 44.08 524.743 42.4267 523.143 41.2C521.597 39.92 519.65 39.28 517.303 39.28Z" fill="black"/>
</svg>
