<?xml version="1.0" encoding="UTF-8"?>
<svg width="531px" height="86px" viewBox="0 0 531 86" version="1.1" xmlns="http://www.w3.org/2000/svg" xmlns:xlink="http://www.w3.org/1999/xlink">
    <title>logo_das_balance备份</title>
    <g id="页面-1" stroke="none" stroke-width="1" fill="none" fill-rule="evenodd">
        <g id="logo_das_balance备份" transform="translate(0.000000, 0.000000)">
            <g id="编组-20" transform="translate(-0.000000, 0.000000)" fill-rule="nonzero">
                <path d="M213.856118,19.0689657 C217.885615,15.2257055 223.8669,13.4357368 231.623682,13.7460817 C246.029135,14.326019 251.280073,23.5015676 251.415439,32.0250785 C251.428031,32.9498434 250.675649,33.7053293 249.746976,33.7053293 L249.746976,33.7053293 L241.511691,33.7053293 C240.573573,33.7053293 239.811747,32.956113 239.796006,32.0250785 C239.711009,28.940439 238.508456,25.5799375 231.154624,25.2852666 C226.800878,25.1065832 223.517467,25.8589343 221.905669,27.3981193 C220.844777,28.4075237 220.731448,29.6112854 220.731448,30.0815049 L220.731448,30.0815049 L220.731608,30.24002 L220.731608,30.24002 L220.732726,30.400359 C220.757651,32.4963292 221.268612,35.0376177 231.743308,37.3605017 C243.806615,40.0376177 251.843573,44.2163011 251.840427,55.9153607 C251.840427,59.9811914 250.118445,63.956113 247.118358,66.818182 C243.302928,70.4576804 237.705705,72.294671 230.465202,72.294671 C229.854481,72.294671 229.234317,72.278997 228.598412,72.2539187 C213.695568,71.6394986 208.246303,62.4827588 208.082125,53.9749218 C208.066864,53.0501569 208.816099,52.294671 209.744772,52.294671 L209.744772,52.294671 L218.027278,52.294671 C218.943359,52.294671 219.698889,53.0219437 219.717777,53.9310347 L219.717777,53.9310347 L219.717777,53.9749218 C219.953881,59.6551726 225.145007,60.5517243 229.08321,60.7147337 C235.470593,60.9811914 238.086618,59.4294673 239.078252,58.4827588 C240.076182,57.5297807 240.22414,56.4670848 240.22414,55.9153607 L240.22414,55.9153607 L240.223981,55.7114344 C240.223661,55.5763819 240.222703,55.443103 240.219827,55.3114603 L240.213915,55.1152062 L240.213915,55.1152062 L240.204169,54.9213031 C240.060371,52.60816 238.881231,50.7805644 229.21228,48.6363638 C219.853143,46.5611287 209.112015,42.5768027 209.112015,30.0846397 C209.112015,25.9623826 210.840292,21.9467086 213.856118,19.0689657 Z M122.924848,14.0815049 C128.984834,14.1379312 133.795046,15.6865205 137.355485,18.7241381 C140.912775,21.7084641 142.719753,25.8275864 142.776418,31.0752353 L142.776418,31.0752353 L142.776418,55.1191224 C142.719753,60.3730409 140.912775,64.4890284 137.355485,67.4733544 C133.795046,70.5141068 128.984834,72.0626961 122.924848,72.1159876 L122.924848,72.1159876 L103.262161,72.1159876 C102.327192,72.1159876 101.571661,71.3636365 101.571661,70.4357369 L101.571661,70.4357369 L101.571661,15.7617557 C101.571661,14.833856 102.33034,14.0815049 103.262161,14.0815049 L103.262161,14.0815049 L122.924848,14.0815049 Z M181.563476,14.0940441 C182.268638,14.0940441 182.898247,14.5297807 183.146943,15.1849531 L183.146943,15.1849531 L203.779227,69.8275864 C204.191621,70.9247651 203.376278,72.0971789 202.195761,72.0971789 L202.195761,72.0971789 L193.069579,72.0971789 C192.364417,72.0971789 191.734808,71.6614422 191.486113,71.0062698 L191.486113,71.0062698 L188.892124,64.1379312 L171.3827,64.1379312 C170.202183,64.1379312 169.386839,62.9686522 169.799233,61.8714735 L169.799233,61.8714735 L172.988202,53.3793105 C173.23375,52.7241381 173.866507,52.2884014 174.571669,52.2884014 L174.571669,52.2884014 L184.418753,52.2884014 L175.704965,29.2068967 L159.99937,71.0094046 C159.753823,71.664577 159.121066,72.1003137 158.415904,72.1003137 L158.415904,72.1003137 L149.296018,72.1003137 C148.115502,72.1003137 147.300158,70.9310347 147.712552,69.833856 L147.712552,69.833856 L168.244099,15.1849531 C168.489647,14.5297807 169.122404,14.0940441 169.827566,14.0940441 L169.827566,14.0940441 L181.563476,14.0940441 Z M122.858739,25.9341695 L113.490158,25.9341695 L113.490158,60.2664579 L122.861887,60.2664579 C125.975303,60.2319751 128.235599,59.633229 129.579814,58.4858936 L129.579814,58.4858936 L129.620739,58.4514108 L129.661664,58.4169281 C130.096094,58.0532917 130.816996,57.448276 130.851625,55.0470221 L130.851625,55.0470221 L130.848476,55.0470221 L130.848476,31.1536052 C130.8107,28.7492165 130.089798,28.1473356 129.658516,27.7836992 L129.658516,27.7836992 L129.617591,27.7492165 L129.579814,27.7147337 C128.235599,26.5673983 125.975303,25.9686522 122.858739,25.9341695 L122.858739,25.9341695 Z" id="形状结合" fill="#000000"></path>
                <path d="M3.55271368e-14,69.846395 L0.00629608934,69.8369906 C2.72935473,65.9874608 6.25201672,62.7648903 10.3413267,60.3887147 L10.4672485,60.3166144 C18.4790222,68.0470219 28.8864579,71.9153605 39.2970416,71.9153605 C49.7076254,71.9153605 60.115061,68.0501567 68.1299828,60.3166144 L68.2464604,60.3824451 C72.3452146,62.7586207 75.8773207,65.9874608 78.6035274,69.846395 L78.6035274,69.846395 C67.7648096,80.6144201 53.5356477,86 39.3033377,86 C25.0710278,86 10.8324217,80.6144201 3.55271368e-14,69.846395 Z" id="路径" fill="#2471FE"></path>
                <path d="M70.2675051,6.78568313e-13 L39.2970416,6.78568313e-13 L39.2970416,6.78568313e-13 L39.2970416,6.78568313e-13 C22.2188993,6.78568313e-13 8.32657815,13.8087774 8.32657815,30.7805643 C8.32657815,47.7523511 22.2220473,61.5611285 39.2970416,61.5611285 C56.3720359,61.5611285 70.2675051,47.7523511 70.2675051,30.7805643 C70.2675051,23.8526646 67.9253599,17.476489 64.0249325,12.3260188 C67.8088822,9.52351097 70.2675051,5.05329154 70.2675051,6.78568313e-13 Z M39.3001897,47.4733542 C30.0417903,47.4733542 22.5053714,39.984326 22.5053714,30.7805643 C22.5053714,21.5768025 30.0386422,14.0877743 39.3001897,14.0877743 C48.5617371,14.0877743 56.0918599,21.5768025 56.0918599,30.7805643 C56.0918599,39.984326 48.558589,47.4733542 39.3001897,47.4733542 Z" id="形状" fill="#00DF9B"></path>
            </g>
            <path d="M314.234,68 C319.068667,68 322.990667,66.7666667 326,64.3 C329.009333,61.8333333 330.514,58.3306667 330.514,53.792 C330.514,47.7733333 327.899333,43.654 322.67,41.434 C322.423333,41.286 322.423333,41.138 322.67,40.99 C327.455333,38.9673333 329.848,35.292 329.848,29.964 C329.848,25.4746667 328.429667,22.0583333 325.593,19.715 C322.756333,17.3716667 318.772667,16.2 313.642,16.2 L313.642,16.2 L295.808,16.2 C295.314667,16.2 295.068,16.4466667 295.068,16.94 L295.068,16.94 L295.068,67.26 C295.068,67.7533333 295.314667,68 295.808,68 L295.808,68 L314.234,68 Z M313.642,38.548 L302.468,38.548 C302.270667,38.548 302.172,38.4493333 302.172,38.252 L302.172,38.252 L302.172,22.638 C302.172,22.4406667 302.270667,22.342 302.468,22.342 L302.468,22.342 L313.642,22.342 C316.503333,22.342 318.760333,23.082 320.413,24.562 C322.065667,26.042 322.892,28.04 322.892,30.556 C322.892,33.0226667 322.065667,34.9713333 320.413,36.402 C318.760333,37.8326667 316.503333,38.548 313.642,38.548 L313.642,38.548 Z M314.234,61.784 L302.468,61.784 C302.270667,61.784 302.172,61.6853333 302.172,61.488 L302.172,61.488 L302.172,44.764 C302.172,44.5666667 302.270667,44.468 302.468,44.468 L302.468,44.468 L314.012,44.468 C316.922667,44.468 319.216667,45.245 320.894,46.799 C322.571333,48.353 323.41,50.462 323.41,53.126 C323.41,55.79 322.583667,57.899 320.931,59.453 C319.278333,61.007 317.046,61.784 314.234,61.784 L314.234,61.784 Z M348.272,68.592 C350.541333,68.592 352.601,68.2343333 354.451,67.519 C356.301,66.8036667 357.867333,65.78 359.15,64.448 C359.396667,64.3 359.52,64.3493333 359.52,64.596 L359.52,64.596 L359.52,67.26 C359.52,67.7533333 359.766667,68 360.26,68 L360.26,68 L365.884,68 C366.377333,68 366.624,67.7533333 366.624,67.26 L366.624,67.26 L366.624,42.248 C366.624,39.8306667 366.019667,37.6723333 364.811,35.773 C363.602333,33.8736667 361.875667,32.3936667 359.631,31.333 C357.386333,30.2723333 354.759333,29.742 351.75,29.742 C347.655333,29.742 344.251333,30.667 341.538,32.517 C338.824667,34.367 337.270667,36.7473333 336.876,39.658 C336.826667,39.954 337.048667,40.1513333 337.542,40.25 L337.542,40.25 L343.536,41.064 C343.98,41.1133333 344.276,40.8913333 344.424,40.398 C344.72,39.0166667 345.521667,37.919 346.829,37.105 C348.136333,36.291 349.826,35.884 351.898,35.884 C354.463333,35.884 356.375,36.4883333 357.633,37.697 C358.891,38.9056667 359.52,40.5953333 359.52,42.766 L359.52,42.766 L359.52,44.764 C359.52,44.9613333 359.421333,45.06 359.224,45.06 L359.224,45.06 L350.936,45.06 C346.101333,45.06 342.339667,46.1576667 339.651,48.353 C336.962333,50.5483333 335.618,53.57 335.618,57.418 C335.618,61.1673333 336.814333,63.967 339.207,65.817 C341.599667,67.667 344.621333,68.592 348.272,68.592 Z M349.826,62.598 C347.704667,62.598 345.990333,62.1293333 344.683,61.192 C343.375667,60.2546667 342.722,58.8733333 342.722,57.048 C342.722,55.0253333 343.585333,53.4466667 345.312,52.312 C347.038667,51.1773333 349.357333,50.61 352.268,50.61 L352.268,50.61 L359.224,50.61 C359.421333,50.61 359.52,50.7086667 359.52,50.906 L359.52,50.906 L359.52,55.272 C359.52,57.3933333 358.558,59.1446667 356.634,60.526 C354.71,61.9073333 352.440667,62.598 349.826,62.598 Z M380.608,68 C381.101333,68 381.348,67.7533333 381.348,67.26 L381.348,67.26 L381.348,16.94 C381.348,16.4466667 381.101333,16.2 380.608,16.2 L380.608,16.2 L374.984,16.2 C374.490667,16.2 374.244,16.4466667 374.244,16.94 L374.244,16.94 L374.244,67.26 C374.244,67.7533333 374.490667,68 374.984,68 L374.984,68 L380.608,68 Z M399.92,68.592 C402.189333,68.592 404.249,68.2343333 406.099,67.519 C407.949,66.8036667 409.515333,65.78 410.798,64.448 C411.044667,64.3 411.168,64.3493333 411.168,64.596 L411.168,64.596 L411.168,67.26 C411.168,67.7533333 411.414667,68 411.908,68 L411.908,68 L417.532,68 C418.025333,68 418.272,67.7533333 418.272,67.26 L418.272,67.26 L418.272,42.248 C418.272,39.8306667 417.667667,37.6723333 416.459,35.773 C415.250333,33.8736667 413.523667,32.3936667 411.279,31.333 C409.034333,30.2723333 406.407333,29.742 403.398,29.742 C399.303333,29.742 395.899333,30.667 393.186,32.517 C390.472667,34.367 388.918667,36.7473333 388.524,39.658 C388.474667,39.954 388.696667,40.1513333 389.19,40.25 L389.19,40.25 L395.184,41.064 C395.628,41.1133333 395.924,40.8913333 396.072,40.398 C396.368,39.0166667 397.169667,37.919 398.477,37.105 C399.784333,36.291 401.474,35.884 403.546,35.884 C406.111333,35.884 408.023,36.4883333 409.281,37.697 C410.539,38.9056667 411.168,40.5953333 411.168,42.766 L411.168,42.766 L411.168,44.764 C411.168,44.9613333 411.069333,45.06 410.872,45.06 L410.872,45.06 L402.584,45.06 C397.749333,45.06 393.987667,46.1576667 391.299,48.353 C388.610333,50.5483333 387.266,53.57 387.266,57.418 C387.266,61.1673333 388.462333,63.967 390.855,65.817 C393.247667,67.667 396.269333,68.592 399.92,68.592 Z M401.474,62.598 C399.352667,62.598 397.638333,62.1293333 396.331,61.192 C395.023667,60.2546667 394.37,58.8733333 394.37,57.048 C394.37,55.0253333 395.233333,53.4466667 396.96,52.312 C398.686667,51.1773333 401.005333,50.61 403.916,50.61 L403.916,50.61 L410.872,50.61 C411.069333,50.61 411.168,50.7086667 411.168,50.906 L411.168,50.906 L411.168,55.272 C411.168,57.3933333 410.206,59.1446667 408.282,60.526 C406.358,61.9073333 404.088667,62.598 401.474,62.598 Z M432.256,68 C432.749333,68 432.996,67.7533333 432.996,67.26 L432.996,67.26 L432.996,44.172 C432.996,41.7546667 433.736,39.7813333 435.216,38.252 C436.696,36.7226667 438.595333,35.958 440.914,35.958 C443.282,35.958 445.181333,36.7226667 446.612,38.252 C448.042667,39.7813333 448.758,41.7793333 448.758,44.246 L448.758,44.246 L448.758,67.26 C448.758,67.7533333 449.004667,68 449.498,68 L449.498,68 L455.122,68 C455.615333,68 455.862,67.7533333 455.862,67.26 L455.862,67.26 L455.862,42.84 C455.862,38.844 454.678,35.6743333 452.31,33.331 C449.942,30.9876667 446.735333,29.816 442.69,29.816 C438.546,29.816 435.413333,31.1726667 433.292,33.886 C433.242667,33.9846667 433.181,34.0093333 433.107,33.96 C433.033,33.9106667 432.996,33.8366667 432.996,33.738 L432.996,33.738 L432.996,31.074 C432.996,30.5806667 432.749333,30.334 432.256,30.334 L432.256,30.334 L426.632,30.334 C426.138667,30.334 425.892,30.5806667 425.892,31.074 L425.892,31.074 L425.892,67.26 C425.892,67.7533333 426.138667,68 426.632,68 L426.632,68 L432.256,68 Z M478.652,68.592 C482.352,68.592 485.583333,67.6793333 488.346,65.854 C491.108667,64.0286667 492.909333,61.6113333 493.748,58.602 C493.994667,57.9606667 494.118,57.418 494.118,56.974 L494.118,56.974 L494.118,56.678 C494.118,56.382 493.920667,56.1846667 493.526,56.086 L493.526,56.086 L487.976,55.198 C487.581333,55.0993333 487.31,55.2473333 487.162,55.642 L487.162,55.642 L487.162,55.938 C487.112667,55.9873333 487.100333,56.049 487.125,56.123 C487.149667,56.197 487.137333,56.2586667 487.088,56.308 C486.693333,58.1333333 485.719,59.6133333 484.165,60.748 C482.611,61.8826667 480.748667,62.45 478.578,62.45 C476.456667,62.45 474.668333,61.8826667 473.213,60.748 C471.757667,59.6133333 470.783333,58.0593333 470.29,56.086 C469.846,54.31 469.624,51.9913333 469.624,49.13 C469.624,46.2193333 469.846,43.876 470.29,42.1 C470.734,40.2253333 471.696,38.7206667 473.176,37.586 C474.656,36.4513333 476.456667,35.884 478.578,35.884 C480.748667,35.884 482.598667,36.4513333 484.128,37.586 C485.657333,38.7206667 486.619333,40.1266667 487.014,41.804 L487.014,41.804 L487.236,42.988 C487.384,43.432 487.630667,43.654 487.976,43.654 L487.976,43.654 L488.124,43.654 L493.674,42.84 C494.118,42.7413333 494.34,42.4946667 494.34,42.1 C494.241333,41.2613333 494.044,40.4473333 493.748,39.658 C492.909333,36.7966667 491.108667,34.4286667 488.346,32.554 C485.583333,30.6793333 482.352,29.742 478.652,29.742 C474.952,29.742 471.757667,30.6793333 469.069,32.554 C466.380333,34.4286667 464.542667,36.9446667 463.556,40.102 C462.816,42.6673333 462.446,45.652 462.446,49.056 C462.446,52.756 462.816,55.7406667 463.556,58.01 C464.542667,61.266 466.368,63.8436667 469.032,65.743 C471.696,67.6423333 474.902667,68.592 478.652,68.592 Z M515.576,68.666 C518.782667,68.666 521.656333,68.0246667 524.197,66.742 C526.737667,65.4593333 528.698667,63.708 530.08,61.488 C530.277333,61.1426667 530.203333,60.822 529.858,60.526 L529.858,60.526 L525.64,57.714 C525.245333,57.3686667 524.924667,57.4426667 524.678,57.936 C522.704667,60.9453333 519.892667,62.45 516.242,62.45 C513.726,62.45 511.641667,61.895 509.989,60.785 C508.336333,59.675 507.238667,58.1333333 506.696,56.16 C506.4,55.272 506.252,53.9893333 506.252,52.312 C506.252,52.1146667 506.350667,52.016 506.548,52.016 L506.548,52.016 L530.154,52.016 C530.647333,52.016 530.894,51.7693333 530.894,51.276 C530.943333,48.76 530.869333,46.4906667 530.672,44.468 C530.129333,39.6333333 528.624667,35.9703333 526.158,33.479 C523.691333,30.9876667 519.966667,29.742 514.984,29.742 C511.185333,29.742 507.954,30.7286667 505.29,32.702 C502.626,34.6753333 500.85,37.364 499.962,40.768 C499.419333,42.6426667 499.148,45.3806667 499.148,48.982 C499.148,53.126 499.74,56.6533333 500.924,59.564 C502.157333,62.4746667 504.007333,64.7193333 506.474,66.298 C508.940667,67.8766667 511.974667,68.666 515.576,68.666 Z M523.494,46.17 L506.548,46.17 C506.350667,46.17 506.252,46.0713333 506.252,45.874 C506.350667,44.1966667 506.572667,42.8153333 506.918,41.73 C507.411333,39.954 508.348667,38.5356667 509.73,37.475 C511.111333,36.4143333 512.862667,35.884 514.984,35.884 C517.154667,35.884 518.967667,36.4636667 520.423,37.623 C521.878333,38.7823333 522.852667,40.324 523.346,42.248 C523.543333,43.0373333 523.691333,44.246 523.79,45.874 C523.79,46.0713333 523.691333,46.17 523.494,46.17 L523.494,46.17 Z" id="Balance" fill="#000000" fill-rule="nonzero"></path>
            <polygon id="矩形" fill-opacity="0.14614292" fill="#000000" points="272 11 274 11 274 75 272 75"></polygon>
        </g>
    </g>
</svg>